<svg width="29" height="20" viewBox="0 0 29 20" fill="none" xmlns="http://www.w3.org/2000/svg">
<path d="M26.7152 2.78034C27.7732 2.07387 28.6491 2.53939 28.6491 3.81247L28.6489 17.2644C28.6439 17.8796 28.3961 18.4678 27.9597 18.9011C27.5232 19.3346 26.9332 19.5782 26.3181 19.5792H2.34065C1.72453 19.5783 1.13364 19.335 0.695591 18.9018C0.257529 18.4687 0.00773202 17.8803 0 17.2644V3.82177C0 2.5489 0.879067 2.08655 1.93707 2.79307L12.3939 9.76351C12.9764 10.1103 13.6416 10.2933 14.3194 10.2933C14.9975 10.2933 15.6626 10.1103 16.2451 9.76351L26.7152 2.78034Z" fill="#41F092"/>
<path d="M24.4653 0.0294222C25.7382 0.0294222 25.9142 0.615312 24.8528 1.33154L16.2446 7.05492C15.6621 7.40192 14.997 7.58496 14.3189 7.58496C13.641 7.58496 12.9759 7.40192 12.3934 7.05492L3.78527 1.30224C2.72383 0.595778 2.89987 0.00012207 4.17269 0.00012207L24.4653 0.0294222Z" fill="#41F092"/>
</svg>
