<svg width="24" height="24" fill="none"
    xmlns="http://www.w3.org/2000/svg">
    <rect width="24" height="24" rx="12" fill="url(#cam_svg__a)"></rect>
    <path d="m9.938 12.055.125.484-.125-.484Zm1.017-.21.077.495-.077-.494Zm.712-.087-.046-.498.046.498Zm.784-.047-.016-.5.016.5Zm1.435.029-.033.499.033-.5Zm1.28 7.593.314-.39-.313.39Zm-9.792-2.848-.414.28.414-.28ZM4.71 8.7l-.455-.207.455.207Zm2.686-3.243-.288-.409.288.409Zm9.207-.001.288-.409-.288.409Zm-1.424 13.887.2.46-.2-.46ZM9.494 12.71c.18-.061.37-.118.57-.17l-.252-.968a9 9 0 0 0-.64.191l.322.947Zm.57-.17c.22-.057.452-.109.693-.153l-.18-.983c-.265.048-.52.104-.765.168l.251.968Zm.693-.153c.09-.016.182-.032.275-.046l-.153-.988c-.102.015-.203.032-.302.05l.18.984Zm.275-.046c.219-.034.446-.062.68-.084l-.091-.996a12.06 12.06 0 0 0-.742.092l.153.988Zm.68-.084c.106-.01.212-.018.32-.025l-.064-.998c-.117.008-.233.017-.347.027l.091.996Zm.32-.025c.142-.01.286-.016.434-.02l-.03-1c-.16.005-.315.012-.468.022l.064.998Zm.434-.02c.274-.009.557-.008.851 0l.032-.999c-.314-.01-.618-.01-.914-.001l.03 1Zm.851 0c.175.006.354.015.536.028l.067-.998a16.13 16.13 0 0 0-.57-.029l-.033 1Zm.536.028c.22.015.48.034.77.06l.087-.997a41.821 41.821 0 0 0-.79-.061l-.067.998Zm-1.353-.507V4h-1v7.732h1ZM5.861 16.6c.207-.882.836-2.938 3.633-3.89l-.322-.947c-3.273 1.114-4.043 3.58-4.285 4.609l.974.228ZM12 19.5a7.492 7.492 0 0 1-6.212-3.296l-.828.561A8.492 8.492 0 0 0 12 20.5v-1Zm-6.212-3.296A7.463 7.463 0 0 1 4.5 12h-1c0 1.765.539 3.406 1.46 4.765l.828-.56Zm3.85-4.366L5.013 8.303l-.608.794 4.624 3.536.607-.794ZM4.5 12c0-1.104.238-2.151.666-3.094l-.911-.413A8.471 8.471 0 0 0 3.5 12h1Zm.666-3.094a7.532 7.532 0 0 1 2.518-3.04l-.576-.818a8.532 8.532 0 0 0-2.853 3.445l.91.413Zm2.518-3.04A7.463 7.463 0 0 1 12 4.5v-1c-1.82 0-3.509.573-4.892 1.548l.576.817Zm-.734-.183 3.27 6.438.892-.453-3.27-6.438-.892.453Zm9.21-.459-3.27 6.257.886.463 3.27-6.257-.886-.463ZM12 4.5c1.607 0 3.095.505 4.315 1.365l.576-.818A8.464 8.464 0 0 0 12 3.5v1Zm4.315 1.365a7.531 7.531 0 0 1 2.518 3.039l.91-.414a8.532 8.532 0 0 0-2.852-3.443l-.576.818Zm2.518 3.039c.428.943.667 1.99.667 3.096h1c0-1.25-.27-2.44-.756-3.51l-.91.414Zm-3.888 3.312 4.622-3.104-.557-.83-4.622 3.104.557.83Zm-.322.083c1.512.131 3.746.402 5.207.839l.287-.958c-1.568-.47-3.893-.746-5.407-.878l-.087.997ZM19.5 12c0 .208-.009.414-.025.618l.997.081c.018-.23.028-.464.028-.699h-1Zm-.025.618v.008l.996.082v-.009l-.996-.081Zm-3.996 6.325c-1.006-.806-1.535-1.564-1.725-2.212-.183-.625-.066-1.187.318-1.687.397-.517 1.1-.989 2.111-1.332 1.007-.341 2.287-.543 3.79-.545l-.001-1c-1.587.002-2.979.215-4.11.598-1.125.381-2.026.944-2.584 1.67-.571.745-.76 1.637-.483 2.577.268.916.963 1.833 2.059 2.712l.625-.78Zm3.995-6.317a7.505 7.505 0 0 1-4.494 6.259l.398.917a8.505 8.505 0 0 0 5.093-7.094l-.997-.082Zm-4.494 6.259A7.472 7.472 0 0 1 12 19.5v1c1.2 0 2.342-.249 3.378-.698l-.398-.917Zm-.126.838.012.01.626-.78-.012-.01-.626.78Z" fill="#F8FAFC"></path>
    <defs>
        <linearGradient id="cam_svg__a" x1="0" y1="0" x2="24" y2="24" gradientUnits="userSpaceOnUse">
            <stop offset="0.105" stop-color="#149EED"></stop>
            <stop offset="0.895" stop-color="#B440FC"></stop>
        </linearGradient>
    </defs>
</svg>