<svg width="107" height="41" viewBox="0 0 107 41" fill="none" xmlns="http://www.w3.org/2000/svg">
<g opacity="0.8">
<path d="M8.92118 21.8329C8.09883 21.8329 7.39395 22.4986 7.39395 23.3601V35.2255C7.39395 36.0479 8.05967 36.7528 8.92118 36.7528C9.74354 36.7528 10.4484 36.087 10.4484 35.2255V23.3601C10.4484 22.5378 9.74354 21.8329 8.92118 21.8329Z" fill="white"/>
<path d="M16.2051 21.8329C15.3436 21.8329 14.6779 22.4986 14.6779 23.3601V38.8282C14.6779 39.6897 15.3436 40.3555 16.2051 40.3555C17.0666 40.3555 17.7323 39.6897 17.7323 38.8282V23.3601C17.7323 22.5378 17.0274 21.8329 16.2051 21.8329Z" fill="white"/>
<path d="M29.3625 33.2284C29.1667 33.3067 28.9709 33.385 28.8142 33.4634C28.4618 33.5808 28.1485 33.62 27.8744 33.6592H27.8353C27.2479 33.6592 26.7779 33.5025 26.308 33.2284C26.0339 33.0326 25.7598 32.7976 25.564 32.5235C25.4073 32.2886 25.2507 31.9753 25.1332 31.662C25.1332 31.662 25.1332 31.662 25.1332 31.6229C25.0157 31.1921 24.9374 30.683 24.9374 30.0956V23.3993C24.9374 22.5378 24.2717 21.8721 23.4102 21.8721C22.5487 21.8721 21.883 22.5378 21.883 23.3993V30.0956C21.883 32.7193 22.862 34.7948 24.585 35.9304C25.4465 36.4787 26.4647 36.7919 27.522 36.7919C28.501 36.7919 29.5583 36.557 30.5764 36.0871C31.3596 35.7346 31.6729 34.834 31.3205 34.0508C31.0464 33.2284 30.1457 32.876 29.3625 33.2284Z" fill="white"/>
<path d="M22.9795 13.9618C22.9795 12.7087 21.9614 11.6906 20.7083 11.6906C19.4552 11.6906 18.437 12.7087 18.437 13.9618C18.437 15.2149 19.4552 16.2331 20.7083 16.2331C21.9614 16.2331 22.9795 15.2149 22.9795 13.9618Z" fill="white"/>
<path d="M11.6626 11.6515C10.4095 11.6515 9.39133 12.6696 9.39133 13.9228C9.39133 15.1759 10.4095 16.194 11.6626 16.194C12.9157 16.194 13.9339 15.1759 13.9339 13.9228C13.973 12.6696 12.9157 11.6515 11.6626 11.6515Z" fill="white"/>
<path d="M16.205 0.138428C7.35485 0.138428 0.110291 7.34383 0.110291 16.2331V25.044C0.110291 25.9056 0.815164 26.5713 1.63752 26.5713C2.49903 26.5713 3.16475 25.8664 3.16475 25.044V16.2331C3.16475 9.06686 8.99956 3.23205 16.1658 3.23205C23.332 3.23205 29.1668 9.06686 29.1668 16.2331V25.044C29.1668 25.9056 29.8717 26.5713 30.6941 26.5713C31.5556 26.5713 32.2213 25.8664 32.2213 25.044V16.2331C32.2605 7.34383 25.0551 0.138428 16.205 0.138428Z" fill="white"/>
<path d="M46.6714 19.9926C45.3399 19.9926 44.2435 19.5619 43.3428 18.6612C42.4421 17.7997 42.0114 16.7032 42.0114 15.4501V15.4109C42.0114 14.1578 42.4421 13.0613 43.3428 12.1607C44.2435 11.26 45.3399 10.8292 46.6714 10.8292C48.0028 10.8292 49.0993 11.26 49.9999 12.1607C50.9006 13.0613 51.3314 14.1186 51.3314 15.3718V15.4109C51.3314 16.664 50.9006 17.7605 49.9999 18.622C49.1384 19.5619 48.0028 19.9926 46.6714 19.9926ZM46.7105 18.2304C47.4937 18.2304 48.1594 17.9563 48.6294 17.4081C49.0993 16.8598 49.3734 16.2333 49.3734 15.4501V15.4109C49.3734 14.6277 49.0993 13.962 48.6294 13.4138C48.1203 12.8655 47.4937 12.5914 46.7105 12.5914C45.9273 12.5914 45.3008 12.8655 44.7917 13.4138C44.3218 13.962 44.0477 14.6277 44.0477 15.4109C44.0477 16.1941 44.2826 16.8598 44.7917 17.4081C45.3008 17.9563 45.9273 18.2304 46.7105 18.2304Z" fill="white"/>
<path d="M57.127 19.9926C55.8348 19.9926 54.7383 19.5619 53.8768 18.6612C53.0153 17.7997 52.5845 16.7032 52.5845 15.4501V15.4109C52.5845 14.1578 53.0153 13.0613 53.8768 12.1607C54.7383 11.26 55.8348 10.8292 57.127 10.8292C58.341 10.8292 59.3591 11.1817 60.1815 11.9257C60.3773 12.1215 60.4948 12.3565 60.4948 12.6306C60.4948 12.8655 60.4165 13.1005 60.2207 13.2963C60.0249 13.4921 59.8291 13.5704 59.5549 13.5704C59.32 13.5704 59.1242 13.4921 58.9675 13.3746C58.3802 12.8655 57.7536 12.6306 57.0879 12.6306C56.383 12.6306 55.7564 12.9047 55.2865 13.4529C54.8166 14.0012 54.5425 14.6669 54.5425 15.4109C54.5425 16.1941 54.7774 16.8598 55.2865 17.4081C55.7956 17.9563 56.4222 18.2304 57.1662 18.2304C57.8711 18.2304 58.4976 17.9563 59.1242 17.4472C59.2808 17.2906 59.4766 17.2123 59.6724 17.2123C59.9074 17.2123 60.1032 17.2906 60.299 17.4864C60.4556 17.643 60.5339 17.878 60.5339 18.1129C60.5339 18.3871 60.4556 18.5829 60.2598 18.7395C59.4375 19.5619 58.3801 19.9926 57.127 19.9926Z" fill="white"/>
<path d="M65.1548 19.9535C63.4709 19.9535 62.6486 19.092 62.6486 17.3689V12.7481H62.3353C62.1003 12.7481 61.9045 12.6698 61.7087 12.5131C61.5521 12.3565 61.4738 12.1607 61.4738 11.8866C61.4738 11.6516 61.5521 11.4558 61.7087 11.26C61.8654 11.1034 62.0612 11.0251 62.3353 11.0251H62.6486V9.53698C62.6486 9.26286 62.7661 9.0279 62.9619 8.8321C63.1577 8.6363 63.3926 8.55798 63.6667 8.55798C63.9409 8.55798 64.1758 8.6363 64.3716 8.8321C64.5674 9.0279 64.6457 9.26286 64.6457 9.53698V11.0251H66.2121C66.4471 11.0251 66.682 11.1034 66.8387 11.26C66.9953 11.4166 67.1128 11.6124 67.1128 11.8866C67.1128 12.1215 67.0345 12.3173 66.8387 12.5131C66.682 12.6698 66.4471 12.7481 66.2121 12.7481H64.6457V17.0557C64.6457 17.7997 64.9982 18.1521 65.7422 18.1521C65.8205 18.1521 65.938 18.1521 66.0555 18.113C66.173 18.113 66.2513 18.0738 66.2513 18.0738C66.4862 18.0738 66.682 18.1521 66.8387 18.3088C66.9953 18.4654 67.0736 18.6612 67.0736 18.8962C67.0736 19.2878 66.8778 19.5227 66.5254 19.6794C66.0555 19.8752 65.6247 19.9535 65.1548 19.9535Z" fill="white"/>
<path d="M72.5952 19.9926C71.2637 19.9926 70.1673 19.5619 69.2666 18.6612C68.3659 17.7997 67.9352 16.7032 67.9352 15.4501V15.4109C67.9352 14.1578 68.3659 13.0613 69.2666 12.1607C70.1673 11.26 71.2637 10.8292 72.5952 10.8292C73.9266 10.8292 75.0231 11.26 75.9237 12.1607C76.8244 13.0613 77.2552 14.1186 77.2552 15.3718V15.4109C77.2552 16.664 76.8244 17.7605 75.9237 18.622C75.0622 19.5619 73.9266 19.9926 72.5952 19.9926ZM72.6343 18.2304C73.4175 18.2304 74.0832 17.9563 74.5531 17.4081C75.0231 16.8598 75.2972 16.2333 75.2972 15.4501V15.4109C75.2972 14.6277 75.0231 13.962 74.5531 13.4138C74.0441 12.8655 73.4175 12.5914 72.6343 12.5914C71.8511 12.5914 71.2246 12.8655 70.7155 13.4138C70.2456 13.962 69.9715 14.6277 69.9715 15.4109C69.9715 16.1941 70.2064 16.8598 70.7155 17.4081C71.2246 17.9563 71.8903 18.2304 72.6343 18.2304Z" fill="white"/>
<path d="M79.0173 21.52V11.965C79.0173 11.6909 79.0957 11.456 79.2915 11.2602C79.4873 11.0644 79.7222 10.986 79.9963 10.986C80.2704 10.986 80.5054 11.1035 80.7012 11.2993C80.897 11.4951 80.9753 11.7301 80.9753 12.0042V12.5524C81.7585 11.456 82.7375 10.9077 83.9515 10.9077C85.0479 10.9077 85.9878 11.2993 86.8101 12.1217C87.6325 12.944 88.0241 14.0405 88.0241 15.4502V15.4111C88.0241 16.7817 87.6325 17.8782 86.8101 18.7005C86.0269 19.5229 85.0479 19.9536 83.9515 19.9536C82.7375 19.9536 81.7585 19.4445 80.9753 18.4264V21.52C80.9753 21.7941 80.897 22.0291 80.7012 22.2249C80.5054 22.4207 80.2704 22.499 79.9963 22.499C79.7222 22.499 79.4873 22.4207 79.2915 22.2249C79.0957 22.0291 79.0173 21.7941 79.0173 21.52ZM83.5207 18.2306C84.2256 18.2306 84.813 17.9565 85.3221 17.4474C85.792 16.9383 86.0269 16.2726 86.0269 15.4111C86.0269 14.5887 85.792 13.923 85.2829 13.3748C84.813 12.8657 84.1864 12.5916 83.5207 12.5916C82.8158 12.5916 82.2284 12.8657 81.7194 13.3748C81.2103 13.8839 80.9753 14.5887 80.9753 15.3719V15.4111C80.9753 16.2334 81.2103 16.8992 81.7194 17.4082C82.2284 17.9565 82.8158 18.2306 83.5207 18.2306Z" fill="white"/>
<path d="M97.5789 11.9647V18.896C97.5789 19.1701 97.4615 19.405 97.2657 19.6008C97.0699 19.7966 96.8349 19.875 96.5608 19.875C96.2867 19.875 96.0517 19.7966 95.8559 19.6008C95.6601 19.405 95.5426 19.1701 95.5426 18.896V18.4652C94.8378 19.4834 93.9371 19.9924 92.8014 19.9924C91.8225 19.9924 91.0784 19.6792 90.5302 19.0918C89.9819 18.4652 89.7078 17.682 89.7078 16.6247V11.9647C89.7078 11.6906 89.7861 11.4556 89.9819 11.2598C90.1777 11.064 90.4127 10.9465 90.6868 10.9465C90.9609 10.9465 91.1959 11.064 91.3917 11.2598C91.5875 11.4556 91.6658 11.6906 91.6658 11.9647V16.0373C91.6658 16.703 91.8224 17.2513 92.1357 17.6037C92.449 17.9561 92.9189 18.1519 93.5063 18.1519C94.0937 18.1519 94.5636 17.9561 94.9161 17.5645C95.2685 17.1729 95.4643 16.6639 95.4643 15.9981V11.9647C95.4643 11.6906 95.5426 11.4556 95.7384 11.2598C95.9342 11.064 96.1692 10.9465 96.4433 10.9465C96.7174 10.9465 96.9524 11.064 97.1482 11.2598C97.4615 11.4165 97.5789 11.6514 97.5789 11.9647Z" fill="white"/>
<path d="M102.748 19.9535C101.534 19.9535 100.438 19.6011 99.4195 18.8962C99.1845 18.7788 99.0279 18.5438 99.0279 18.1914C99.0279 17.9564 99.1062 17.7606 99.2629 17.604C99.4195 17.4473 99.6153 17.369 99.8503 17.369C100.007 17.369 100.164 17.4082 100.281 17.4865C101.103 18.0347 101.965 18.348 102.787 18.348C103.218 18.348 103.57 18.2697 103.805 18.0739C104.04 17.9172 104.158 17.6823 104.158 17.369C104.158 16.9382 103.57 16.5466 102.396 16.1942C102.317 16.1551 102.239 16.1551 102.2 16.1159C101.808 15.9984 101.456 15.8809 101.221 15.8026C100.947 15.6851 100.673 15.5285 100.359 15.3327C100.046 15.1369 99.8503 14.9019 99.6936 14.5887C99.537 14.2754 99.4587 13.9229 99.4587 13.5313V13.4922C99.4587 12.6698 99.7719 12.0433 100.359 11.5342C100.947 11.0643 101.691 10.7902 102.591 10.7902C103.531 10.7902 104.432 11.0251 105.333 11.495C105.646 11.6517 105.803 11.9258 105.803 12.2391C105.803 12.474 105.724 12.6698 105.568 12.8265C105.411 12.9831 105.215 13.0614 104.98 13.0614C104.863 13.0614 104.706 13.0223 104.589 12.9439C103.805 12.5524 103.14 12.3566 102.513 12.3566C102.122 12.3566 101.847 12.4349 101.612 12.5915C101.377 12.7482 101.299 12.944 101.299 13.2181V13.2572C101.299 13.5313 101.456 13.7663 101.73 13.9229C102.043 14.0796 102.474 14.2754 103.101 14.4712C103.179 14.5103 103.218 14.5103 103.257 14.5103C103.649 14.6278 103.962 14.7453 104.236 14.8628C104.51 14.9803 104.784 15.1369 105.058 15.3327C105.333 15.5285 105.568 15.7635 105.724 16.0767C105.881 16.3508 105.959 16.7033 105.959 17.0557V17.0949C105.959 17.9956 105.646 18.6613 105.058 19.1312C104.471 19.7186 103.688 19.9535 102.748 19.9535Z" fill="white"/>
<path d="M42.5203 33.9339V27.0026C42.5203 26.7285 42.5986 26.4935 42.7944 26.2978C42.9902 26.102 43.2252 26.0236 43.4993 26.0236C43.7734 26.0236 44.0084 26.1411 44.2042 26.3369C44.4 26.5327 44.4783 26.7677 44.4783 27.0418V27.4725C45.1832 26.4544 46.0838 25.9453 47.2195 25.9453C48.1985 25.9453 48.9425 26.2586 49.4907 26.846C50.039 27.4334 50.3131 28.2557 50.3131 29.2739V33.9339C50.3131 34.208 50.2348 34.443 50.039 34.6388C49.8432 34.8346 49.6082 34.9129 49.3341 34.9129C49.06 34.9129 48.825 34.8346 48.6292 34.6388C48.4334 34.443 48.3551 34.208 48.3551 33.9339V29.8613C48.3551 29.1956 48.1985 28.6473 47.8852 28.2949C47.5719 27.9425 47.102 27.7467 46.5146 27.7467C45.9272 27.7467 45.4573 27.9425 45.1048 28.3341C44.7524 28.7257 44.5566 29.2347 44.5566 29.9396V33.9731C44.5566 34.2472 44.4783 34.4821 44.2825 34.6779C44.0867 34.8737 43.8517 34.9521 43.5776 34.9521C43.3035 34.9521 43.0685 34.8737 42.8727 34.6779C42.5986 34.443 42.5203 34.208 42.5203 33.9339Z" fill="white"/>
<path d="M59.6332 33.8942C58.7717 34.6774 57.7144 35.069 56.5004 35.069C55.2082 35.069 54.1509 34.6383 53.2893 33.8159C52.4278 32.9544 51.9971 31.8971 51.9971 30.5265V30.4873C51.9971 29.2342 52.3887 28.1377 53.211 27.2371C54.0334 26.3364 55.0515 25.9056 56.2655 25.9056C57.1662 25.9056 57.9102 26.1406 58.5759 26.5714C59.2416 27.0021 59.7115 27.5503 59.9857 28.1769C60.2598 28.8035 60.4164 29.4692 60.4164 30.1741C60.4164 30.4482 60.3381 30.6831 60.1423 30.8789C59.9465 31.0747 59.7507 31.153 59.4766 31.153H53.9942C54.1117 31.8579 54.3858 32.4062 54.8557 32.7978C55.3257 33.1894 55.8739 33.3852 56.5396 33.3852C57.2836 33.3852 57.9885 33.1502 58.6151 32.6411C58.7717 32.5236 58.9283 32.4453 59.1241 32.4453C59.3591 32.4453 59.5157 32.5236 59.6724 32.6803C59.829 32.8369 59.9073 33.0327 59.9073 33.2677C59.8682 33.5026 59.7899 33.6984 59.6332 33.8942ZM53.9551 29.8608H58.4584C58.3801 29.1951 58.1843 28.6468 57.7927 28.2161C57.4011 27.7853 56.892 27.5503 56.2655 27.5503C55.6389 27.5503 55.1299 27.7461 54.7383 28.1769C54.3075 28.6077 54.0334 29.1559 53.9551 29.8608Z" fill="white"/>
<path d="M65.0764 34.9912C63.3926 34.9912 62.5702 34.1297 62.5702 32.4067V27.7858H62.2569C62.022 27.7858 61.8262 27.7075 61.6304 27.5508C61.4737 27.3942 61.3954 27.1984 61.3954 26.9243C61.3954 26.6893 61.4737 26.4935 61.6304 26.2977C61.787 26.1411 61.9828 26.0628 62.2569 26.0628H62.5702V24.5747C62.5702 24.3006 62.6877 24.0656 62.8835 23.8698C63.0793 23.674 63.3142 23.5957 63.5884 23.5957C63.8625 23.5957 64.0974 23.674 64.2932 23.8698C64.489 24.0656 64.5674 24.3006 64.5674 24.5747V26.0628H66.1337C66.3687 26.0628 66.6037 26.1411 66.7603 26.2977C66.9169 26.4544 67.0344 26.6502 67.0344 26.9243C67.0344 27.1592 66.9561 27.355 66.7603 27.5508C66.6037 27.7075 66.3687 27.7858 66.1337 27.7858H64.5674V32.0934C64.5674 32.8374 64.9198 33.1898 65.6638 33.1898C65.7421 33.1898 65.8596 33.1898 65.9771 33.1507C66.0946 33.1507 66.1729 33.1115 66.1729 33.1115C66.4079 33.1115 66.6037 33.1898 66.7603 33.3465C66.9169 33.5031 66.9953 33.6989 66.9953 33.9339C66.9953 34.3255 66.7995 34.5604 66.447 34.7171C66.0163 34.9129 65.5464 34.9912 65.0764 34.9912Z" fill="white"/>
<path d="M71.5377 34.9912C70.9894 34.9912 70.637 34.6779 70.4412 34.0905L68.0916 27.4334C68.0133 27.2376 67.9741 27.0809 67.9741 26.9243C67.9741 26.6893 68.0524 26.4544 68.2482 26.2586C68.444 26.0628 68.679 25.9845 68.9531 25.9845C69.423 25.9845 69.7755 26.2586 69.9321 26.7677L71.616 32.0542L73.339 26.7677C73.4956 26.2194 73.8481 25.9845 74.3572 25.9845H74.4746C74.9837 25.9845 75.3362 26.2586 75.4928 26.7677L77.2158 32.0542L78.9389 26.7285C79.0955 26.2194 79.4088 25.9453 79.9179 25.9453C80.192 25.9453 80.3878 26.0236 80.5836 26.2194C80.7794 26.4152 80.8577 26.611 80.8577 26.8851C80.8577 27.0026 80.8185 27.1593 80.7794 27.3159L78.3906 34.0514C78.1948 34.6388 77.8032 34.9521 77.2941 34.9521H77.2158C76.6676 34.9521 76.3151 34.6779 76.1194 34.0905L74.3963 28.8823L72.6733 34.0905C72.4775 34.6779 72.1251 34.9521 71.5768 34.9521H71.5377V34.9912Z" fill="white"/>
<path d="M86.3011 35.069C84.9697 35.069 83.8732 34.6383 82.9725 33.7376C82.0719 32.8761 81.6411 31.7796 81.6411 30.5265V30.4873C81.6411 29.2342 82.0719 28.1377 82.9725 27.2371C83.8732 26.3364 84.9697 25.9056 86.3011 25.9056C87.6326 25.9056 88.729 26.3364 89.6297 27.2371C90.5304 28.1377 90.9611 29.1951 90.9611 30.4482V30.4873C90.9611 31.7404 90.5304 32.8369 89.6297 33.6984C88.7682 34.5991 87.6326 35.069 86.3011 35.069ZM86.3403 33.3068C87.1235 33.3068 87.7892 33.0327 88.2591 32.4845C88.729 31.9362 89.0031 31.3097 89.0031 30.5265V30.4873C89.0031 29.7041 88.729 29.0384 88.2591 28.4902C87.75 27.9419 87.1235 27.6678 86.3403 27.6678C85.5571 27.6678 84.9305 27.9419 84.4215 28.4902C83.9515 29.0384 83.6774 29.7041 83.6774 30.4873V30.5265C83.6774 31.3097 83.9124 31.9754 84.4215 32.5236C84.9305 33.0327 85.5963 33.3068 86.3403 33.3068Z" fill="white"/>
<path d="M92.7233 33.9335V27.0022C92.7233 26.7281 92.8017 26.4931 92.9975 26.2973C93.1932 26.1015 93.4282 26.0232 93.7023 26.0232C93.9764 26.0232 94.2114 26.1407 94.4072 26.3365C94.603 26.5323 94.6813 26.7672 94.6813 27.0413V27.942C94.9163 27.3938 95.2296 26.9239 95.6603 26.5714C96.0519 26.219 96.4827 26.0232 96.9134 26.0232C97.2267 26.0232 97.4617 26.1015 97.6575 26.2973C97.8533 26.4931 97.9316 26.7281 97.9316 27.0022C97.9316 27.2763 97.8533 27.4721 97.6966 27.6287C97.54 27.7854 97.3442 27.9029 97.1092 27.942C96.3652 28.0595 95.7778 28.4119 95.347 28.9993C94.9163 29.5867 94.6813 30.3699 94.6813 31.3489V33.9335C94.6813 34.2076 94.5638 34.4425 94.368 34.6383C94.1722 34.8341 93.9373 34.9125 93.6632 34.9125C93.3891 34.9125 93.1541 34.8341 92.9583 34.6383C92.8016 34.4425 92.7233 34.2076 92.7233 33.9335Z" fill="white"/>
<path d="M99.2237 33.9335V23.6345C99.2237 23.3604 99.302 23.1254 99.4978 22.9296C99.6936 22.7338 99.9285 22.6555 100.203 22.6555C100.477 22.6555 100.712 22.7338 100.908 22.9296C101.103 23.1254 101.221 23.3604 101.221 23.6345V30.0959L104.98 26.4149C105.254 26.1407 105.568 25.9841 105.842 25.9841C106.077 25.9841 106.312 26.0624 106.468 26.2582C106.625 26.454 106.703 26.6498 106.703 26.9239C106.703 27.1981 106.547 27.5113 106.272 27.7854L103.962 29.9392L106.625 33.3853C106.821 33.6203 106.899 33.8552 106.899 34.051C106.899 34.3251 106.821 34.5209 106.625 34.7167C106.429 34.8734 106.233 34.9908 105.959 34.9908C105.607 34.9908 105.293 34.8342 105.098 34.5601L102.591 31.2315L101.26 32.4846V34.0119C101.26 34.286 101.182 34.5209 100.986 34.7167C100.79 34.9125 100.555 34.9908 100.281 34.9908C100.007 34.9908 99.7719 34.9125 99.5761 34.7167C99.3411 34.4426 99.2237 34.2077 99.2237 33.9335Z" fill="white"/>
</g>
</svg>
